<svg width="27" height="26" viewBox="0 0 27 26" fill="none" xmlns="http://www.w3.org/2000/svg">
<path d="M20.0875 6.4H20.0995M7.48755 1H19.4875C22.8013 1 25.4875 3.68629 25.4875 7V19C25.4875 22.3137 22.8013 25 19.4875 25H7.48755C4.17384 25 1.48755 22.3137 1.48755 19V7C1.48755 3.68629 4.17384 1 7.48755 1ZM18.2878 12.2441C18.4359 13.2428 18.2653 14.2627 17.8003 15.1589C17.3353 16.055 16.5996 16.7818 15.6977 17.2357C14.7959 17.6896 13.7739 17.8476 12.7771 17.6872C11.7803 17.5268 10.8595 17.0562 10.1456 16.3423C9.43168 15.6284 8.96106 14.7075 8.80066 13.7107C8.64027 12.7139 8.79826 11.6919 9.25218 10.7901C9.70609 9.88829 10.4328 9.15256 11.329 8.68756C12.2251 8.22256 13.2451 8.05197 14.2438 8.20007C15.2625 8.35113 16.2056 8.82583 16.9338 9.55404C17.662 10.2822 18.1367 11.2254 18.2878 12.2441Z" stroke="#6A60CE" stroke-width="2" stroke-linecap="round" stroke-linejoin="round"/>
</svg>
