<svg width="28" height="26" viewBox="0 0 28 26" fill="none" xmlns="http://www.w3.org/2000/svg">
<path d="M18.9088 8.57895C20.9189 8.57895 22.8466 9.37744 24.2679 10.7988C25.6893 12.2201 26.4878 14.1478 26.4878 16.1579V25H21.4351V16.1579C21.4351 15.4879 21.169 14.8453 20.6952 14.3715C20.2214 13.8977 19.5788 13.6316 18.9088 13.6316C18.2388 13.6316 17.5962 13.8977 17.1224 14.3715C16.6487 14.8453 16.3825 15.4879 16.3825 16.1579V25H11.3299V16.1579C11.3299 14.1478 12.1284 12.2201 13.5497 10.7988C14.971 9.37744 16.8988 8.57895 18.9088 8.57895Z" stroke="#6A60CE" stroke-width="2" stroke-linecap="round" stroke-linejoin="round"/>
<path d="M6.27724 9.8421H1.22461V25H6.27724V9.8421Z" stroke="#6A60CE" stroke-width="2" stroke-linecap="round" stroke-linejoin="round"/>
<path d="M3.75093 6.05263C5.14617 6.05263 6.27724 4.92156 6.27724 3.52632C6.27724 2.13107 5.14617 1 3.75093 1C2.35568 1 1.22461 2.13107 1.22461 3.52632C1.22461 4.92156 2.35568 6.05263 3.75093 6.05263Z" stroke="#6A60CE" stroke-width="2" stroke-linecap="round" stroke-linejoin="round"/>
</svg>
