<svg width="27" height="22" viewBox="0 0 27 22" fill="none" xmlns="http://www.w3.org/2000/svg">
<path d="M25.7449 1.01097C24.7002 1.74785 23.5435 2.31145 22.3194 2.68006C21.6624 1.92462 20.7892 1.38918 19.818 1.14616C18.8468 0.903145 17.8243 0.964274 16.889 1.32128C15.9536 1.67829 15.1504 2.31395 14.5881 3.1423C14.0258 3.97064 13.7315 4.9517 13.7449 5.95279V7.0437C11.8277 7.09341 9.92808 6.66822 8.21506 5.806C6.50205 4.94378 5.02886 3.6713 3.92669 2.10188C3.92669 2.10188 -0.436945 11.9201 9.38124 16.2837C7.13454 17.8088 4.45814 18.5734 1.74487 18.4655C11.5631 23.9201 23.5631 18.4655 23.5631 5.92006C23.5621 5.61619 23.5328 5.31307 23.4758 5.01461C24.5892 3.9166 25.3749 2.53029 25.7449 1.01097V1.01097Z" stroke="#6A60CE" stroke-width="2" stroke-linecap="round" stroke-linejoin="round"/>
</svg>
