<svg width="25" height="26" viewBox="0 0 25 26" fill="none" xmlns="http://www.w3.org/2000/svg">
<path d="M17.4672 25V20.5828C17.51 20.0385 17.4364 19.4914 17.2515 18.9777C17.0665 18.4641 16.7743 17.9957 16.3942 17.6037C19.9782 17.2042 23.7449 15.846 23.7449 9.61392C23.7446 8.02032 23.1316 6.48785 22.0328 5.33366C22.5531 3.93945 22.5163 2.39838 21.93 1.03058C21.93 1.03058 20.5832 0.631091 17.4672 2.71986C14.8511 2.01084 12.0934 2.01084 9.47736 2.71986C6.36133 0.631091 5.01448 1.03058 5.01448 1.03058C4.42823 2.39838 4.39144 3.93945 4.91175 5.33366C3.80474 6.49641 3.19112 8.04274 3.19965 9.64816C3.19965 15.8346 6.96627 17.1928 10.5503 17.638C10.1747 18.026 9.88514 18.4888 9.70028 18.9961C9.51543 19.5035 9.43947 20.0441 9.47736 20.5828V25M9.47736 21.5758C3.77035 23.2879 3.77035 18.7223 1.48755 18.1516L9.47736 21.5758Z" stroke="#6A60CE" stroke-width="2" stroke-linecap="round" stroke-linejoin="round"/>
</svg>
