<svg width="138" height="138" viewBox="0 0 138 138" fill="none" xmlns="http://www.w3.org/2000/svg">
<path d="M136.999 68.9902L137 69.043C137 106.944 106.583 137.667 69.0615 137.667V68.9902H136.999Z" fill="#F4F4F4"/>
<path d="M68.6652 137.25C106.289 137.25 136.79 106.749 136.79 69.1251C136.79 31.5004 106.289 1.00027 68.6652 1.00027C31.0408 1.00027 0.540587 31.5004 0.540587 69.1251C0.540587 106.749 31.0408 137.25 68.6652 137.25Z" stroke="#E7E7E7" stroke-width="0.938777" stroke-miterlimit="10"/>
<path d="M68.6647 132.326C103.571 132.326 131.867 104.03 131.867 69.124C131.867 34.2181 103.571 5.92182 68.6647 5.92182C33.7591 5.92182 5.46283 34.2181 5.46283 69.124C5.46283 104.03 33.7591 132.326 68.6647 132.326Z" stroke="#E7E7E7" stroke-width="0.91771" stroke-miterlimit="10"/>
<path d="M68.6653 127.404C100.852 127.404 126.945 101.312 126.945 69.1248C126.945 36.9377 100.852 10.8453 68.6653 10.8453C36.4785 10.8453 10.3854 36.9377 10.3854 69.1248C10.3854 101.312 36.4785 127.404 68.6653 127.404V127.404Z" stroke="#E7E7E7" stroke-width="0.896644" stroke-miterlimit="10"/>
<path d="M68.665 122.482C98.1335 122.482 122.022 98.5933 122.022 69.1249C122.022 39.6566 98.1335 15.7674 68.665 15.7674C39.1969 15.7674 15.3077 39.6566 15.3077 69.1249C15.3077 98.5933 39.1969 122.482 68.665 122.482V122.482Z" stroke="#E7E7E7" stroke-width="0.875578" stroke-miterlimit="10"/>
<path d="M68.6655 117.561C95.4155 117.561 117.101 95.8753 117.101 69.1257C117.101 42.3761 95.4155 20.6909 68.6655 20.6909C41.9155 20.6909 20.2309 42.3761 20.2309 69.1257C20.2309 95.8753 41.9155 117.561 68.6655 117.561V117.561Z" stroke="#E7E7E7" stroke-width="0.854379" stroke-miterlimit="10"/>
<path d="M68.6651 112.637C92.6964 112.637 112.178 93.1547 112.178 69.1239C112.178 45.0924 92.6964 25.611 68.6651 25.611C44.6339 25.611 25.1526 45.0924 25.1526 69.1239C25.1526 93.1547 44.6339 112.637 68.6651 112.637V112.637Z" stroke="#E7E7E7" stroke-width="0.833313" stroke-miterlimit="10"/>
<path d="M68.6647 107.715C89.9775 107.715 107.255 90.4374 107.255 69.1247C107.255 47.812 89.9775 30.5345 68.6647 30.5345C47.3522 30.5345 30.0748 47.812 30.0748 69.1247C30.0748 90.4374 47.3522 107.715 68.6647 107.715V107.715Z" stroke="#E7E7E7" stroke-width="0.812246" stroke-miterlimit="10"/>
<path d="M68.6653 102.793C87.2596 102.793 102.333 87.7194 102.333 69.1255C102.333 50.5315 87.2596 35.458 68.6653 35.458C50.0716 35.458 34.9981 50.5315 34.9981 69.1255C34.9981 87.7194 50.0716 102.793 68.6653 102.793V102.793Z" stroke="#E7E7E7" stroke-width="0.791047" stroke-miterlimit="10"/>
<path d="M68.6648 97.8711C84.5403 97.8711 97.4102 85.0008 97.4102 69.1256C97.4102 53.2497 84.5403 40.3801 68.6648 40.3801C52.7892 40.3801 39.9196 53.2497 39.9196 69.1256C39.9196 85.0008 52.7892 97.8711 68.6648 97.8711V97.8711Z" stroke="#E7E7E7" stroke-width="0.769981" stroke-miterlimit="10"/>
<path d="M68.6647 92.9473C81.8217 92.9473 92.4873 82.2816 92.4873 69.1245C92.4873 55.9674 81.8217 45.3017 68.6647 45.3017C55.5079 45.3017 44.8422 55.9674 44.8422 69.1245C44.8422 82.2816 55.5079 92.9473 68.6647 92.9473Z" stroke="#E7E7E7" stroke-width="0.748915" stroke-miterlimit="10"/>
<path d="M68.665 88.0254C79.1033 88.0254 87.5654 79.5636 87.5654 69.1253C87.5654 58.687 79.1033 50.2252 68.665 50.2252C58.227 50.2252 49.7652 58.687 49.7652 69.1253C49.7652 79.5636 58.227 88.0254 68.665 88.0254V88.0254Z" stroke="#E7E7E7" stroke-width="0.727848" stroke-miterlimit="10"/>
<path d="M68.6656 83.1016C76.3853 83.1016 82.6436 76.8437 82.6436 69.1241C82.6436 61.4039 76.3853 55.146 68.6656 55.146C60.9463 55.146 54.6877 61.4039 54.6877 69.1241C54.6877 76.8437 60.9463 83.1016 68.6656 83.1016Z" stroke="#E7E7E7" stroke-width="0.706649" stroke-miterlimit="10"/>
<path d="M68.6655 78.1797C73.6667 78.1797 77.7207 74.1257 77.7207 69.1243C77.7207 64.1228 73.6667 60.0688 68.6655 60.0688C63.6643 60.0688 59.6103 64.1228 59.6103 69.1243C59.6103 74.1257 63.6643 78.1797 68.6655 78.1797V78.1797Z" stroke="#E7E7E7" stroke-width="0.685583" stroke-miterlimit="10"/>
<path d="M68.665 73.2578C70.9475 73.2578 72.7979 71.4078 72.7979 69.1251C72.7979 66.8424 70.9475 64.9923 68.665 64.9923C66.3825 64.9923 64.5325 66.8424 64.5325 69.1251C64.5325 71.4078 66.3825 73.2578 68.665 73.2578Z" stroke="#E7E7E7" stroke-width="0.664517" stroke-miterlimit="10"/>
</svg>
