<svg width="1050" height="125" viewBox="0 0 1050 125" fill="none" xmlns="http://www.w3.org/2000/svg">
<path d="M29.3496 2.14062H30.3496V1.14062H29.3496V2.14062ZM29.3496 123V124H30.3496V123H29.3496ZM0.213867 123H-0.786133V124H0.213867V123ZM0.213867 2.14062V1.14062H-0.786133V2.14062H0.213867ZM76.332 52.4434H77.332V51.4434H76.332V52.4434ZM76.332 74.8555V75.8555H77.332V74.8555H76.332ZM21.0488 74.8555H20.0488V75.8555H21.0488V74.8555ZM21.0488 52.4434V51.4434H20.0488V52.4434H21.0488ZM81.0635 2.14062H82.0635V1.14062H81.0635V2.14062ZM81.0635 24.6357V25.6357H82.0635V24.6357H81.0635ZM21.0488 24.6357H20.0488V25.6357H21.0488V24.6357ZM21.0488 2.14062V1.14062H20.0488V2.14062H21.0488ZM28.3496 2.14062V123H30.3496V2.14062H28.3496ZM29.3496 122H0.213867V124H29.3496V122ZM1.21387 123V2.14062H-0.786133V123H1.21387ZM0.213867 3.14062H29.3496V1.14062H0.213867V3.14062ZM75.332 52.4434V74.8555H77.332V52.4434H75.332ZM76.332 73.8555H21.0488V75.8555H76.332V73.8555ZM22.0488 74.8555V52.4434H20.0488V74.8555H22.0488ZM21.0488 53.4434H76.332V51.4434H21.0488V53.4434ZM80.0635 2.14062V24.6357H82.0635V2.14062H80.0635ZM81.0635 23.6357H21.0488V25.6357H81.0635V23.6357ZM22.0488 24.6357V2.14062H20.0488V24.6357H22.0488ZM21.0488 3.14062H81.0635V1.14062H21.0488V3.14062ZM210.356 100.588H211.356V99.5879H210.356V100.588ZM210.356 123V124H211.356V123H210.356ZM145.942 123H144.942V124H145.942V123ZM145.942 100.588V99.5879H144.942V100.588H145.942ZM156.318 2.14062H157.318V1.14062H156.318V2.14062ZM156.318 123V124H157.318V123H156.318ZM127.183 123H126.183V124H127.183V123ZM127.183 2.14062V1.14062H126.183V2.14062H127.183ZM202.056 50.1191H203.056V49.1191H202.056V50.1191ZM202.056 71.7842V72.7842H203.056V71.7842H202.056ZM145.942 71.7842H144.942V72.7842H145.942V71.7842ZM145.942 50.1191V49.1191H144.942V50.1191H145.942ZM210.605 2.14062H211.605V1.14062H210.605V2.14062ZM210.605 24.6357V25.6357H211.605V24.6357H210.605ZM145.942 24.6357H144.942V25.6357H145.942V24.6357ZM145.942 2.14062V1.14062H144.942V2.14062H145.942ZM209.356 100.588V123H211.356V100.588H209.356ZM210.356 122H145.942V124H210.356V122ZM146.942 123V100.588H144.942V123H146.942ZM145.942 101.588H210.356V99.5879H145.942V101.588ZM155.318 2.14062V123H157.318V2.14062H155.318ZM156.318 122H127.183V124H156.318V122ZM128.183 123V2.14062H126.183V123H128.183ZM127.183 3.14062H156.318V1.14062H127.183V3.14062ZM201.056 50.1191V71.7842H203.056V50.1191H201.056ZM202.056 70.7842H145.942V72.7842H202.056V70.7842ZM146.942 71.7842V50.1191H144.942V71.7842H146.942ZM145.942 51.1191H202.056V49.1191H145.942V51.1191ZM209.605 2.14062V24.6357H211.605V2.14062H209.605ZM210.605 23.6357H145.942V25.6357H210.605V23.6357ZM146.942 24.6357V2.14062H144.942V24.6357H146.942ZM145.942 3.14062H210.605V1.14062H145.942V3.14062ZM307.525 27.541L308.481 27.836L308.505 27.7579L308.516 27.677L307.525 27.541ZM278.058 123V124H278.795L279.013 123.295L278.058 123ZM246.764 123L245.825 122.655L245.331 124H246.764V123ZM291.173 2.14062V1.14062H290.475L290.234 1.79573L291.173 2.14062ZM311.012 2.14062L312.002 2.2766L312.158 1.14062H311.012V2.14062ZM331.93 123L330.974 123.296L331.192 124H331.93V123ZM302.379 27.541L301.39 27.6897L301.401 27.7645L301.424 27.8367L302.379 27.541ZM298.561 2.14062V1.14062H297.399L297.572 2.28928L298.561 2.14062ZM318.648 2.14062L319.586 1.79403L319.345 1.14062H318.648V2.14062ZM363.307 123V124H364.742L364.245 122.653L363.307 123ZM330.768 77.9268H331.768V76.9268H330.768V77.9268ZM330.768 100.422V101.422H331.768V100.422H330.768ZM268.761 100.422H267.761V101.422H268.761V100.422ZM268.761 77.9268V76.9268H267.761V77.9268H268.761ZM306.57 27.2461L277.102 122.705L279.013 123.295L308.481 27.836L306.57 27.2461ZM278.058 122H246.764V124H278.058V122ZM247.702 123.345L292.111 2.48552L290.234 1.79573L245.825 122.655L247.702 123.345ZM291.173 3.14062H311.012V1.14062H291.173V3.14062ZM310.021 2.00465L306.535 27.405L308.516 27.677L312.002 2.2766L310.021 2.00465ZM332.885 122.704L303.334 27.2453L301.424 27.8367L330.974 123.296L332.885 122.704ZM303.368 27.3924L299.549 1.99197L297.572 2.28928L301.39 27.6897L303.368 27.3924ZM298.561 3.14062H318.648V1.14062H298.561V3.14062ZM317.71 2.48722L362.369 123.347L364.245 122.653L319.586 1.79403L317.71 2.48722ZM363.307 122H331.93V124H363.307V122ZM329.768 77.9268V100.422H331.768V77.9268H329.768ZM330.768 99.4219H268.761V101.422H330.768V99.4219ZM269.761 100.422V77.9268H267.761V100.422H269.761ZM268.761 78.9268H330.768V76.9268H268.761V78.9268ZM454.748 2.14062H455.748V1.14062H454.748V2.14062ZM454.748 123V124H455.748V123H454.748ZM425.612 123H424.612V124H425.612V123ZM425.612 2.14062V1.14062H424.612V2.14062H425.612ZM491.105 2.14062H492.105V1.14062H491.105V2.14062ZM491.105 24.6357V25.6357H492.105V24.6357H491.105ZM390.085 24.6357H389.085V25.6357H390.085V24.6357ZM390.085 2.14062V1.14062H389.085V2.14062H390.085ZM453.748 2.14062V123H455.748V2.14062H453.748ZM454.748 122H425.612V124H454.748V122ZM426.612 123V2.14062H424.612V123H426.612ZM425.612 3.14062H454.748V1.14062H425.612V3.14062ZM490.105 2.14062V24.6357H492.105V2.14062H490.105ZM491.105 23.6357H390.085V25.6357H491.105V23.6357ZM391.085 24.6357V2.14062H389.085V24.6357H391.085ZM390.085 3.14062H491.105V1.14062H390.085V3.14062ZM603.05 2.14062V1.14062H602.05V2.14062H603.05ZM632.186 2.14062H633.186V1.14062H632.186V2.14062ZM626.292 104.987L627.147 105.506L627.149 105.503L626.292 104.987ZM559.803 119.68L559.381 120.586L559.384 120.588L559.803 119.68ZM543.035 104.987L542.181 105.508L542.187 105.517L543.035 104.987ZM537.059 2.14062V1.14062H536.059V2.14062H537.059ZM566.277 2.14062H567.277V1.14062H566.277V2.14062ZM568.436 93.2832L567.526 93.6982L567.529 93.7043L568.436 93.2832ZM594.832 100.09L595.301 100.973L594.832 100.09ZM600.975 93.2832L601.888 93.6909L601.89 93.6849L600.975 93.2832ZM603.05 3.14062H632.186V1.14062H603.05V3.14062ZM631.186 2.14062V81.0811H633.186V2.14062H631.186ZM631.186 81.0811C631.186 90.3493 629.251 98.1302 625.435 104.472L627.149 105.503C631.191 98.7845 633.186 90.6279 633.186 81.0811H631.186ZM625.437 104.469C621.614 110.769 616.26 115.535 609.349 118.774L610.198 120.585C617.453 117.184 623.112 112.155 627.147 105.506L625.437 104.469ZM609.349 118.774C602.425 122.02 594.247 123.66 584.788 123.66V125.66C594.476 125.66 602.955 123.98 610.198 120.585L609.349 118.774ZM584.788 123.66C575.442 123.66 567.261 122.021 560.222 118.772L559.384 120.588C566.732 123.979 575.208 125.66 584.788 125.66V123.66ZM560.224 118.773C553.256 115.532 547.817 110.763 543.884 104.458L542.187 105.517C546.332 112.161 552.072 117.187 559.381 120.586L560.224 118.773ZM543.889 104.466C540.02 98.1258 538.059 90.347 538.059 81.0811H536.059C536.059 90.6302 538.082 98.7889 542.182 105.508L543.889 104.466ZM538.059 81.0811V2.14062H536.059V81.0811H538.059ZM537.059 3.14062H566.277V1.14062H537.059V3.14062ZM565.277 2.14062V81.0811H567.277V2.14062H565.277ZM565.277 81.0811C565.277 86.1469 566.007 90.3697 567.526 93.6982L569.345 92.8682C567.986 89.8882 567.277 85.9762 567.277 81.0811H565.277ZM567.529 93.7043C569.051 96.9833 571.301 99.4265 574.283 100.977L575.206 99.2026C572.654 97.8756 570.698 95.781 569.343 92.8621L567.529 93.7043ZM574.283 100.977C577.224 102.507 580.739 103.248 584.788 103.248V101.248C580.979 101.248 577.798 100.551 575.206 99.2026L574.283 100.977ZM584.788 103.248C588.889 103.248 592.408 102.508 595.301 100.973L594.363 99.2065C591.833 100.549 588.656 101.248 584.788 101.248V103.248ZM595.301 100.973C598.23 99.4187 600.424 96.9707 601.888 93.6909L600.061 92.8755C598.759 95.7936 596.857 97.8834 594.363 99.2065L595.301 100.973ZM601.89 93.6849C603.348 90.3606 604.05 86.143 604.05 81.0811H602.05C602.05 85.98 601.368 89.8972 600.059 92.8815L601.89 93.6849ZM604.05 81.0811V2.14062H602.05V81.0811H604.05ZM684.53 2.14062V1.14062H683.53V2.14062H684.53ZM756.332 6.29102L755.958 7.21846L756.332 6.29102ZM772.187 18.5762L771.361 19.1406L771.365 19.1463L772.187 18.5762ZM765.546 67.5508L766.162 68.3383L766.164 68.3371L765.546 67.5508ZM752.182 74.9385L751.826 74.0038L751.755 74.0307L751.69 74.0679L752.182 74.9385ZM742.636 80.334V81.334H742.899L743.128 81.2045L742.636 80.334ZM702.709 80.334L701.709 80.3414L701.716 81.334H702.709V80.334ZM702.543 57.8389V56.8389H701.536L701.543 57.8462L702.543 57.8389ZM741.308 55.8467L740.829 54.9688L741.308 55.8467ZM746.786 50.2021L745.896 49.747L745.892 49.7549L746.786 50.2021ZM741.142 26.6279L740.663 27.5059L740.671 27.5103L741.142 26.6279ZM713.666 24.6357V23.6357H712.666V24.6357H713.666ZM713.666 123V124H714.666V123H713.666ZM684.53 123H683.53V124H684.53V123ZM750.688 123L749.793 123.447L750.069 124H750.688V123ZM723.959 69.543L723.954 68.543L722.345 68.5516L723.065 69.9902L723.959 69.543ZM754.838 69.377L755.726 68.918L755.445 68.3737L754.833 68.377L754.838 69.377ZM781.898 121.755H782.898V121.512L782.787 121.296L781.898 121.755ZM781.898 123V124H782.898V123H781.898ZM684.53 3.14062H732.094V1.14062H684.53V3.14062ZM732.094 3.14062C741.294 3.14062 749.241 4.51002 755.958 7.21846L756.706 5.36357C749.699 2.53816 741.487 1.14062 732.094 1.14062V3.14062ZM755.958 7.21846C762.661 9.92122 767.778 13.9004 771.361 19.1406L773.012 18.0118C769.179 12.4056 763.727 8.19467 756.706 5.36357L755.958 7.21846ZM771.365 19.1463C774.99 24.3699 776.831 30.8561 776.831 38.6641H778.831C778.831 30.5345 776.91 23.6288 773.008 18.0061L771.365 19.1463ZM776.831 38.6641C776.831 45.4841 775.766 51.1127 773.687 55.5916L775.501 56.4338C777.738 51.6158 778.831 45.6787 778.831 38.6641H776.831ZM773.687 55.5916C771.592 60.1032 768.673 63.8221 764.928 66.7645L766.164 68.3371C770.166 65.1922 773.279 61.2191 775.501 56.4338L773.687 55.5916ZM764.93 66.7633C761.199 69.6826 756.835 72.0983 751.826 74.0038L752.537 75.8731C757.711 73.9049 762.256 71.3955 766.162 68.3383L764.93 66.7633ZM751.69 74.0679L742.144 79.4634L743.128 81.2045L752.674 75.809L751.69 74.0679ZM742.636 79.334H702.709V81.334H742.636V79.334ZM703.709 80.3266L703.543 57.8315L701.543 57.8462L701.709 80.3414L703.709 80.3266ZM702.543 58.8389H732.094V56.8389H702.543V58.8389ZM732.094 58.8389C735.915 58.8389 739.164 58.1553 741.786 56.7246L740.829 54.9688C738.582 56.1943 735.688 56.8389 732.094 56.8389V58.8389ZM741.786 56.7246C744.397 55.3006 746.37 53.2705 747.681 50.6494L745.892 49.7549C744.767 52.0036 743.088 53.7365 740.829 54.9688L741.786 56.7246ZM747.677 50.6573C749.036 47.9977 749.695 44.8742 749.695 41.3203H747.695C747.695 44.6284 747.082 47.4261 745.896 49.747L747.677 50.6573ZM749.695 41.3203C749.695 37.714 749.037 34.562 747.677 31.9004L745.896 32.8106C747.081 35.1294 747.695 37.954 747.695 41.3203H749.695ZM747.677 31.9004C746.31 29.2264 744.281 27.1689 741.612 25.7456L740.671 27.5103C742.983 28.7432 744.717 30.5041 745.896 32.8106L747.677 31.9004ZM741.62 25.75C739.001 24.3215 735.81 23.6357 732.094 23.6357V25.6357C735.572 25.6357 738.412 26.2781 740.663 27.5058L741.62 25.75ZM732.094 23.6357H713.666V25.6357H732.094V23.6357ZM712.666 24.6357V123H714.666V24.6357H712.666ZM713.666 122H684.53V124H713.666V122ZM685.53 123V2.14062H683.53V123H685.53ZM751.582 122.553L724.853 69.0958L723.065 69.9902L749.793 123.447L751.582 122.553ZM723.964 70.543L754.843 70.3769L754.833 68.377L723.954 68.543L723.964 70.543ZM753.949 69.836L781.01 122.214L782.787 121.296L755.726 68.918L753.949 69.836ZM780.898 121.755V123H782.898V121.755H780.898ZM781.898 122H750.688V124H781.898V122ZM912.603 100.588H913.603V99.5879H912.603V100.588ZM912.603 123V124H913.603V123H912.603ZM848.188 123H847.188V124H848.188V123ZM848.188 100.588V99.5879H847.188V100.588H848.188ZM858.564 2.14062H859.564V1.14062H858.564V2.14062ZM858.564 123V124H859.564V123H858.564ZM829.429 123H828.429V124H829.429V123ZM829.429 2.14062V1.14062H828.429V2.14062H829.429ZM904.302 50.1191H905.302V49.1191H904.302V50.1191ZM904.302 71.7842V72.7842H905.302V71.7842H904.302ZM848.188 71.7842H847.188V72.7842H848.188V71.7842ZM848.188 50.1191V49.1191H847.188V50.1191H848.188ZM912.852 2.14062H913.852V1.14062H912.852V2.14062ZM912.852 24.6357V25.6357H913.852V24.6357H912.852ZM848.188 24.6357H847.188V25.6357H848.188V24.6357ZM848.188 2.14062V1.14062H847.188V2.14062H848.188ZM911.603 100.588V123H913.603V100.588H911.603ZM912.603 122H848.188V124H912.603V122ZM849.188 123V100.588H847.188V123H849.188ZM848.188 101.588H912.603V99.5879H848.188V101.588ZM857.564 2.14062V123H859.564V2.14062H857.564ZM858.564 122H829.429V124H858.564V122ZM830.429 123V2.14062H828.429V123H830.429ZM829.429 3.14062H858.564V1.14062H829.429V3.14062ZM903.302 50.1191V71.7842H905.302V50.1191H903.302ZM904.302 70.7842H848.188V72.7842H904.302V70.7842ZM849.188 71.7842V50.1191H847.188V71.7842H849.188ZM848.188 51.1191H904.302V49.1191H848.188V51.1191ZM911.852 2.14062V24.6357H913.852V2.14062H911.852ZM912.852 23.6357H848.188V25.6357H912.852V23.6357ZM849.188 24.6357V2.14062H847.188V24.6357H849.188ZM848.188 3.14062H912.852V1.14062H848.188V3.14062ZM1019.98 85.8125L1019.04 86.1489L1019.04 86.1598L1019.98 85.8125ZM1010.44 77.5117L1009.99 78.4061L1010 78.4115L1010.01 78.4165L1010.44 77.5117ZM999.479 73.1953L999.162 74.144L999.166 74.1451L999.479 73.1953ZM984.122 67.2188L983.704 68.127L983.712 68.1309L984.122 67.2188ZM970.924 59.333L970.306 60.1194L970.313 60.1248L970.924 59.333ZM961.71 48.708L960.835 49.1927L960.838 49.1977L961.71 48.708ZM961.793 20.4023L962.665 20.891L962.668 20.886L961.793 20.4023ZM971.505 9.69434L972.082 10.511L972.084 10.5095L971.505 9.69434ZM986.28 2.8877L986.545 3.85206L986.554 3.84958L986.28 2.8877ZM1028.2 5.12891L1027.78 6.03778L1027.79 6.0418L1028.2 5.12891ZM1044.14 18.1611L1043.31 18.7215L1043.31 18.7308L1044.14 18.1611ZM1049.95 38V39H1050.95V38H1049.95ZM1020.98 38H1019.98V39H1020.98V38ZM1019.07 29.9482L1018.18 30.4122L1018.19 30.4204L1018.19 30.4286L1019.07 29.9482ZM989.269 28.6201L990.089 29.192L990.097 29.1804L989.269 28.6201ZM988.854 39.6602L988.021 40.2149L988.033 40.2328L988.046 40.2502L988.854 39.6602ZM993.253 43.7275L992.693 44.5559L992.704 44.5632L993.253 43.7275ZM1000.23 47.3799L999.832 48.299L999.838 48.3019L1000.23 47.3799ZM1009.52 50.7832L1009.22 51.7349L1009.22 51.7359L1009.52 50.7832ZM1026.62 57.6729L1026.17 58.5634L1026.18 58.5692L1026.62 57.6729ZM1039.32 66.2227L1038.64 66.9529L1038.65 66.9586L1038.65 66.9642L1039.32 66.2227ZM1047.21 77.0137L1046.29 77.4152L1046.3 77.4256L1047.21 77.0137ZM1037.75 115.861L1038.34 116.668L1038.34 116.663L1037.75 115.861ZM986.944 122.336L986.685 123.302L986.696 123.304L986.944 122.336ZM970.675 115.031L970.111 115.857L970.118 115.862L970.675 115.031ZM958.971 102.331L958.096 102.815L958.102 102.826L958.971 102.331ZM954.654 83.8203V82.8203H953.654V83.8203H954.654ZM983.873 83.8203H984.873V82.8203H983.873V83.8203ZM989.435 98.6787L988.801 99.4527L988.808 99.4585L988.816 99.4642L989.435 98.6787ZM996.158 101.833L995.916 102.803L995.925 102.806L995.935 102.808L996.158 101.833ZM1014.25 101.169L1014.67 102.076L1014.68 102.072L1014.69 102.068L1014.25 101.169ZM1019.23 96.8525L1020.09 97.3631L1020.1 97.3515L1019.23 96.8525ZM1021.81 90.876C1021.81 88.8969 1021.52 87.0886 1020.92 85.4652L1019.04 86.1598C1019.55 87.5247 1019.81 89.092 1019.81 90.876H1021.81ZM1020.92 85.4762C1020.3 83.7379 1019.17 82.1646 1017.57 80.7487L1016.25 82.2435C1017.64 83.4839 1018.55 84.7881 1019.04 86.1488L1020.92 85.4762ZM1017.57 80.7487C1015.98 79.3318 1013.73 77.9557 1010.86 76.6069L1010.01 78.4165C1012.79 79.724 1014.85 81.0042 1016.25 82.2435L1017.57 80.7487ZM1010.88 76.6173C1008.06 75.2038 1004.35 73.7476 999.791 72.2455L999.166 74.1451C1003.68 75.6313 1007.28 77.0527 1009.99 78.4061L1010.88 76.6173ZM999.795 72.2466C994.513 70.486 989.425 68.5059 984.532 66.3066L983.712 68.1309C988.669 70.3587 993.819 72.3629 999.162 74.144L999.795 72.2466ZM984.54 66.3105C979.676 64.0697 975.343 61.4789 971.535 58.5412L970.313 60.1248C974.252 63.1637 978.717 65.83 983.704 68.127L984.54 66.3105ZM971.542 58.5467C967.765 55.5791 964.782 52.1363 962.582 48.2183L960.838 49.1977C963.175 53.3592 966.336 56.9997 970.306 60.1193L971.542 58.5467ZM962.585 48.2234C960.41 44.2986 959.307 39.7114 959.307 34.4307H957.307C957.307 39.9963 958.472 44.9273 960.835 49.1926L962.585 48.2234ZM959.307 34.4307C959.307 29.3835 960.433 24.8784 962.665 20.8909L960.92 19.9137C958.505 24.2271 957.307 29.0742 957.307 34.4307H959.307ZM962.668 20.886C964.915 16.8199 968.048 13.362 972.082 10.511L970.928 8.87767C966.661 11.8926 963.319 15.5733 960.918 19.9187L962.668 20.886ZM972.084 10.5095C976.183 7.59741 980.998 5.37467 986.545 3.85202L986.016 1.92337C980.273 3.49968 975.239 5.8147 970.926 8.87915L972.084 10.5095ZM986.554 3.84958C992.098 2.27332 998.175 1.48047 1004.79 1.48047V-0.519531C998.015 -0.519531 991.752 0.292439 986.007 1.92582L986.554 3.84958ZM1004.79 1.48047C1013.53 1.48047 1021.18 3.00927 1027.78 6.03773L1028.62 4.22008C1021.71 1.05063 1013.76 -0.519531 1004.79 -0.519531V1.48047ZM1027.79 6.0418C1034.44 9.01675 1039.6 13.2457 1043.31 18.7214L1044.96 17.6008C1041.03 11.7875 1035.57 7.3283 1028.61 4.21601L1027.79 6.0418ZM1043.31 18.7308C1047.06 24.1324 1048.95 30.5408 1048.95 38H1050.95C1050.95 30.1857 1048.96 23.3682 1044.96 17.5915L1043.31 18.7308ZM1049.95 37H1020.98V39H1049.95V37ZM1021.98 38C1021.98 34.8137 1021.31 31.96 1019.95 29.4679L1018.19 30.4286C1019.37 32.5849 1019.98 35.0991 1019.98 38H1021.98ZM1019.95 29.4842C1018.64 26.9684 1016.63 25.0025 1013.98 23.5874L1013.04 25.3521C1015.36 26.5932 1017.07 28.2797 1018.18 30.4122L1019.95 29.4842ZM1013.98 23.5874C1011.3 22.1606 1008 21.4775 1004.13 21.4775V23.4775C1007.78 23.4775 1010.73 24.1226 1013.04 25.3521L1013.98 23.5874ZM1004.13 21.4775C1000.38 21.4775 997.161 22.0445 994.507 23.2239L995.319 25.0515C997.646 24.0174 1000.57 23.4775 1004.13 23.4775V21.4775ZM994.507 23.2239C991.88 24.3914 989.837 25.9948 988.44 28.0598L990.097 29.1804C991.245 27.4824 992.966 26.0976 995.319 25.0515L994.507 23.2239ZM988.448 28.0483C987.059 30.0412 986.359 32.2604 986.359 34.6797H988.359C988.359 32.6719 988.932 30.8513 990.089 29.1919L988.448 28.0483ZM986.359 34.6797C986.359 36.6997 986.914 38.5535 988.021 40.2149L989.686 39.1055C988.801 37.7785 988.359 36.312 988.359 34.6797H986.359ZM988.046 40.2502C989.181 41.8036 990.741 43.2354 992.693 44.5558L993.813 42.8993C992.002 41.6741 990.629 40.3943 989.661 39.0701L988.046 40.2502ZM992.704 44.5632C994.701 45.8757 997.08 47.1197 999.832 48.299L1000.62 46.4607C997.948 45.3159 995.679 44.125 993.802 42.8918L992.704 44.5632ZM999.838 48.3019C1002.64 49.477 1005.76 50.6211 1009.22 51.7349L1009.83 49.8315C1006.42 48.7318 1003.35 47.607 1000.61 46.4579L999.838 48.3019ZM1009.22 51.7359C1015.6 53.7701 1021.24 56.047 1026.17 58.5633L1027.08 56.7824C1022.04 54.2076 1016.29 51.8914 1009.83 49.8305L1009.22 51.7359ZM1026.18 58.5692C1031.14 61.0243 1035.29 63.8217 1038.64 66.9529L1040.01 65.4924C1036.49 62.2044 1032.17 59.3018 1027.07 56.7765L1026.18 58.5692ZM1038.65 66.9642C1042.04 70.0301 1044.58 73.5132 1046.29 77.4151L1048.12 76.6122C1046.29 72.4347 1043.58 68.7238 1039.99 65.4811L1038.65 66.9642ZM1046.3 77.4256C1048.06 81.318 1048.95 85.7399 1048.95 90.71H1050.95C1050.95 85.4978 1050.01 80.7888 1048.12 76.6018L1046.3 77.4256ZM1048.95 90.71C1048.95 96.0017 1047.92 100.659 1045.9 104.706L1047.69 105.601C1049.87 101.236 1050.95 96.2645 1050.95 90.71H1048.95ZM1045.9 104.706C1043.87 108.766 1040.96 112.216 1037.15 115.06L1038.34 116.663C1042.39 113.641 1045.51 109.952 1047.69 105.601L1045.9 104.706ZM1037.15 115.055C1033.34 117.849 1028.75 119.987 1023.37 121.454L1023.9 123.384C1029.47 121.863 1034.29 119.629 1038.34 116.668L1037.15 115.055ZM1023.37 121.454C1017.99 122.921 1011.97 123.66 1005.29 123.66V125.66C1012.11 125.66 1018.32 124.905 1023.9 123.384L1023.37 121.454ZM1005.29 123.66C999.175 123.66 993.144 122.896 987.193 121.367L986.696 123.304C992.808 124.875 999.007 125.66 1005.29 125.66V123.66ZM987.204 121.37C981.327 119.792 976.005 117.401 971.232 114.201L970.118 115.862C975.084 119.191 980.608 121.67 986.685 123.302L987.204 121.37ZM971.238 114.205C966.495 110.971 962.698 106.851 959.84 101.836L958.102 102.826C961.11 108.104 965.115 112.451 970.111 115.857L971.238 114.205ZM959.846 101.847C957.065 96.8204 955.654 90.8236 955.654 83.8203H953.654C953.654 91.0944 955.121 97.438 958.096 102.815L959.846 101.847ZM954.654 84.8203H983.873V82.8203H954.654V84.8203ZM982.873 83.8203C982.873 87.4441 983.353 90.5627 984.351 93.1456L986.217 92.4248C985.333 90.1378 984.873 87.2799 984.873 83.8203H982.873ZM984.351 93.1456C985.348 95.7243 986.827 97.8376 988.801 99.4527L990.068 97.9048C988.389 96.5316 987.102 94.7158 986.217 92.4248L984.351 93.1456ZM988.816 99.4642C990.771 101.005 993.146 102.111 995.916 102.803L996.401 100.863C993.857 100.227 991.751 99.2304 990.053 97.8932L988.816 99.4642ZM995.935 102.808C998.68 103.437 1001.8 103.746 1005.29 103.746V101.746C1001.91 101.746 998.949 101.447 996.382 100.858L995.935 102.808ZM1005.29 103.746C1009.08 103.746 1012.23 103.211 1014.67 102.076L1013.83 100.262C1011.74 101.23 1008.92 101.746 1005.29 101.746V103.746ZM1014.69 102.068C1017.1 100.895 1018.92 99.3361 1020.09 97.3631L1018.37 96.342C1017.44 97.9106 1015.95 99.2295 1013.82 100.27L1014.69 102.068ZM1020.1 97.3515C1021.24 95.3698 1021.81 93.2049 1021.81 90.876H1019.81C1019.81 92.8635 1019.33 94.683 1018.37 96.3536L1020.1 97.3515Z" fill="#EAEAEA"/>
</svg>
